<svg xmlns="http://www.w3.org/2000/svg" width="40.674" height="34.998" viewBox="0 0 43 37">
  <metadata><?xpacket begin="﻿" id="W5M0MpCehiHzreSzNTczkc9d"?>
<x:xmpmeta xmlns:x="adobe:ns:meta/" x:xmptk="Adobe XMP Core 5.6-c142 79.160924, 2017/07/13-01:06:39        ">
   <rdf:RDF xmlns:rdf="http://www.w3.org/1999/02/22-rdf-syntax-ns#">
      <rdf:Description rdf:about=""/>
   </rdf:RDF>
</x:xmpmeta>
                                                                                                    
                                                                                                    
                                                                                                    
                                                                                                    
                                                                                                    
                                                                                                    
                                                                                                    
                                                                                                    
                                                                                                    
                                                                                                    
                                                                                                    
                                                                                                    
                                                                                                    
                                                                                                    
                                                                                                    
                                                                                                    
                                                                                                    
                                                                                                    
                                                                                                    
                                                                                                    
                           
<?xpacket end="w"?></metadata>
<defs>
    <style>
      .cls-1 {
        fill-rule: evenodd;
      }
    </style>
  </defs>
  <path id="Forma_1" data-name="Forma 1" class="cls-1" d="M1729.22,1700.29a1.047,1.047,0,0,0-.54-0.69,1.124,1.124,0,0,0-.88-0.07,34.936,34.936,0,0,1-10.83,1.46c-1.07,0-2.1-.04-3.1-0.11a23.033,23.033,0,0,1-2.4,6.32c0.05,0,.1-0.01.15-0.01,1.37,0,2.48-.12,2.48.8a2.865,2.865,0,0,1-2.48,2.51,3,3,0,0,1-1.94-.65,14.563,14.563,0,0,1-4.72,3.89c1.98,6.62,6.61,11.26,12.01,11.26,7.19,0,13.03-8.26,13.03-18.46A25.234,25.234,0,0,0,1729.22,1700.29Zm-7.06,19.32a0.289,0.289,0,0,1-.19.21,0.31,0.31,0,0,1-.28-0.05,8.622,8.622,0,0,0-9.45,0,0.31,0.31,0,0,1-.28.05,0.289,0.289,0,0,1-.19-0.21,4.944,4.944,0,0,1-.13-1.1,5.33,5.33,0,0,1,10.66,0A4.944,4.944,0,0,1,1722.16,1719.61Zm0.15-9.11a2.865,2.865,0,0,1-2.48-2.51c0-.92,1.11-0.8,2.48-0.8s2.47,0.74,2.47,1.65S1723.67,1710.5,1722.31,1710.5Zm-9.24-15.43a25.174,25.174,0,0,0-.78-6.25,1.09,1.09,0,0,0-1.06-.82,1.133,1.133,0,0,0-.36.06,41.207,41.207,0,0,1-21.67,0,1.148,1.148,0,0,0-.37-0.06,1.09,1.09,0,0,0-1.05.82,25.174,25.174,0,0,0-.78,6.25c0,10.19,5.84,18.46,13.03,18.46S1713.07,1705.26,1713.07,1695.07Zm-20.85,2.29c0-.91,1.11-1.65,2.47-1.65a2.865,2.865,0,0,1,2.48,2.51c0,0.91-1.11.8-2.48,0.8S1692.22,1698.28,1692.22,1697.36Zm7.81,12.68a5.313,5.313,0,0,1-5.33-5.29,5.034,5.034,0,0,1,.14-1.11,0.293,0.293,0,0,1,.19-0.2,0.262,0.262,0,0,1,.28.05,8.622,8.622,0,0,0,9.45,0,0.262,0.262,0,0,1,.28-0.05,0.293,0.293,0,0,1,.19.2,5.034,5.034,0,0,1,.13,1.11A5.307,5.307,0,0,1,1700.03,1710.04Zm2.87-11.82a2.865,2.865,0,0,1,2.48-2.51c1.36,0,2.47.74,2.47,1.65s-1.11,1.66-2.47,1.66S1702.9,1699.13,1702.9,1698.22Z" transform="translate(-1687 -1688)"/>
</svg>
