<svg xmlns="http://www.w3.org/2000/svg" width="29.164" height="34.997" viewBox="0 0 40 48">
  <metadata><?xpacket begin="﻿" id="W5M0MpCehiHzreSzNTczkc9d"?>
<x:xmpmeta xmlns:x="adobe:ns:meta/" x:xmptk="Adobe XMP Core 5.6-c142 79.160924, 2017/07/13-01:06:39        ">
   <rdf:RDF xmlns:rdf="http://www.w3.org/1999/02/22-rdf-syntax-ns#">
      <rdf:Description rdf:about=""/>
   </rdf:RDF>
</x:xmpmeta>
                                                                                                    
                                                                                                    
                                                                                                    
                                                                                                    
                                                                                                    
                                                                                                    
                                                                                                    
                                                                                                    
                                                                                                    
                                                                                                    
                                                                                                    
                                                                                                    
                                                                                                    
                                                                                                    
                                                                                                    
                                                                                                    
                                                                                                    
                                                                                                    
                                                                                                    
                                                                                                    
                           
<?xpacket end="w"?></metadata>
<defs>
    <style>
      .cls-1 {
        fill-rule: evenodd;
      }
    </style>
  </defs>
  <path id="Forma_1" data-name="Forma 1" class="cls-1" d="M1702.39,1794.39a19.925,19.925,0,0,1,3.51.32v-3.4h8.28v6.07a9.231,9.231,0,0,1,2.35,1.22,4.446,4.446,0,0,1,2,3.45,12.8,12.8,0,0,0,4.36-1.9c0.47-.32,1.02-0.6,1.34-0.84v-9.44L1710,1773.98l-14.48,15.99v5.71c0.97-.24,1.86-0.51,2.89-0.79A15.22,15.22,0,0,1,1702.39,1794.39Zm7.67-24.29,16.1,17.97h3.67l-19.8-22.07-8.19,9.01v-3.64h-6v10.27l-5.77,6.43h3.72Zm17.96,30.74a6.776,6.776,0,0,0-3.62,1.44,16.636,16.636,0,0,1-9.32,2.76,13.057,13.057,0,0,1-6.53-1.54c-0.82-.5-0.81-0.66-0.34-0.66,0.95,0,3.81.66,5.75,0.66,0.96,0,1.69-.16,1.86-0.64,0.79-2.21-2.27-2.92-5.47-4.21a21.941,21.941,0,0,0-7.93-1.66,12.753,12.753,0,0,0-3.3.4c-4.73,1.29-8.15,2.26-9.12,2.58v12.39a20.249,20.249,0,0,1,5.49-1.4c2.35,0,11.88,3.04,17.28,3.04a8.417,8.417,0,0,0,1.99-.2c4.58-1.1,12.53-7.57,14.69-9.78A1.852,1.852,0,0,0,1728.02,1800.84Z" transform="translate(-1690 -1766)"/>
</svg>
