<svg xmlns="http://www.w3.org/2000/svg" width="37.523" height="34.974" viewBox="0 0 45.03 41.97">
  <metadata><?xpacket begin="﻿" id="W5M0MpCehiHzreSzNTczkc9d"?>
<x:xmpmeta xmlns:x="adobe:ns:meta/" x:xmptk="Adobe XMP Core 5.6-c142 79.160924, 2017/07/13-01:06:39        ">
   <rdf:RDF xmlns:rdf="http://www.w3.org/1999/02/22-rdf-syntax-ns#">
      <rdf:Description rdf:about=""/>
   </rdf:RDF>
</x:xmpmeta>
                                                                                                    
                                                                                                    
                                                                                                    
                                                                                                    
                                                                                                    
                                                                                                    
                                                                                                    
                                                                                                    
                                                                                                    
                                                                                                    
                                                                                                    
                                                                                                    
                                                                                                    
                                                                                                    
                                                                                                    
                                                                                                    
                                                                                                    
                                                                                                    
                                                                                                    
                                                                                                    
                           
<?xpacket end="w"?></metadata>
<defs>
    <style>
      .cls-1 {
        fill-rule: evenodd;
      }
    </style>
  </defs>
  <path id="Forma_1" data-name="Forma 1" class="cls-1" d="M1708.72,1528.65c1.37-.64,1.81-2.54,1-4.23s-2.58-2.55-3.95-1.9-1.81,2.54-1,4.24S1707.35,1529.3,1708.72,1528.65Zm4.1-10.1c1.31,8.15-4.55,14.27-4.55,14.27s-4.82-8.1-12.94-10.54c15.79,11.44,6.8,25.71,6.8,25.71h4.57S1717.33,1529.82,1712.82,1518.55Zm-8.92.93q-0.135-.2-0.27-0.42a7.081,7.081,0,0,1-.6-1.38,7.307,7.307,0,0,1,.9,1.21c0.08,0.15.16,0.3,0.23,0.44a2.462,2.462,0,0,0-.19-1.61,2.659,2.659,0,0,0-1.53-1.04,2.621,2.621,0,0,0,.15,1.83A2.429,2.429,0,0,0,1703.9,1519.48Zm10.49,6a2.442,2.442,0,0,0,1.51.64,1.018,1.018,0,1,0,0-1.58,2.5,2.5,0,0,0-1.51.64c0.16-.01.32-0.02,0.5-0.02a0.765,0.765,0,1,1,0,.34C1714.71,1525.5,1714.55,1525.49,1714.39,1525.48Zm-3.35-6.59a7.307,7.307,0,0,1,.9-1.21,6.545,6.545,0,0,1-.61,1.38q-0.135.225-.27,0.42a2.447,2.447,0,0,0,1.32-.97,2.593,2.593,0,0,0,.14-1.83,2.648,2.648,0,0,0-1.52,1.04,2.4,2.4,0,0,0-.19,1.61C1710.88,1519.19,1710.95,1519.05,1711.04,1518.89Zm-3.93-4.3a15.383,15.383,0,0,1,.37-3.33,15,15,0,0,1,.38,3.33c0,0.39-.02.76-0.05,1.1a5.357,5.357,0,0,0,1.44-3.32,2.262,2.262,0,1,0-3.54,0,5.359,5.359,0,0,0,1.45,3.32C1707.13,1515.35,1707.11,1514.98,1707.11,1514.59Zm-11.84,5.78a5.472,5.472,0,0,0,3.63.42q-0.48-.225-0.99-0.51a15.447,15.447,0,0,1-2.72-1.98,15.24,15.24,0,0,1,3.09,1.34c0.34,0.2.65,0.4,0.94,0.59a5.385,5.385,0,0,0-2.18-2.9,5.927,5.927,0,0,0-4.09-.32A5.786,5.786,0,0,0,1695.27,1520.37Zm24.42,9.93a5.457,5.457,0,0,0-3.62-.43q0.48,0.225.99,0.51a15.931,15.931,0,0,1,2.72,1.98,15.24,15.24,0,0,1-3.09-1.34c-0.34-.19-0.66-0.39-0.95-0.59a5.411,5.411,0,0,0,2.19,2.9,5.927,5.927,0,0,0,4.09.32A5.76,5.76,0,0,0,1719.69,1530.3Zm-20.47.13c-0.29.2-.6,0.4-0.94,0.59a15.937,15.937,0,0,1-3.09,1.35,15.186,15.186,0,0,1,2.72-1.99q0.51-.285.99-0.51a5.423,5.423,0,0,0-3.63.43,5.815,5.815,0,0,0-2.33,3.35,5.956,5.956,0,0,0,4.1-.32A5.385,5.385,0,0,0,1699.22,1530.43Zm16.52-10.2c0.29-.2.61-0.39,0.95-0.59a15.24,15.24,0,0,1,3.09-1.34,15.447,15.447,0,0,1-2.72,1.98q-0.51.285-.99,0.51a5.439,5.439,0,0,0,3.62-.42,5.8,5.8,0,0,0,2.33-3.36,5.927,5.927,0,0,0-4.09.32A5.411,5.411,0,0,0,1715.74,1520.23Zm-15.16-5.87c-0.26-.39-0.53-0.8-0.8-1.25a20.6,20.6,0,0,1-1.81-4.11,20.557,20.557,0,0,1,2.68,3.61c0.26,0.45.49,0.89,0.69,1.31a7.147,7.147,0,0,0-.57-4.81c-1.37-2.35-4.54-3.09-4.54-3.09s-0.94,3.09.43,5.44A7.367,7.367,0,0,0,1700.58,1514.36Zm13.8,21.95c0.27,0.38.54,0.8,0.81,1.25a20.329,20.329,0,0,1,1.81,4.11,20.416,20.416,0,0,1-2.68-3.62c-0.26-.45-0.49-0.89-0.69-1.31a7.142,7.142,0,0,0,.57,4.81c1.37,2.36,4.54,3.09,4.54,3.09s0.94-3.08-.43-5.44A7.272,7.272,0,0,0,1714.38,1536.31Zm-21.43-10.48a20.747,20.747,0,0,1-4.5-.5,20.747,20.747,0,0,1,4.5-.5c0.53,0,1.02.03,1.49,0.07a7.311,7.311,0,0,0-4.49-1.92c-2.75,0-4.97,2.35-4.97,2.35s2.23,2.35,4.97,2.35a7.394,7.394,0,0,0,4.49-1.91C1693.97,1525.8,1693.47,1525.83,1692.95,1525.83Zm32.07-2.85a7.343,7.343,0,0,0-4.5,1.92,14.459,14.459,0,0,1,1.5-.06,21.267,21.267,0,0,1,4.5.49,20.863,20.863,0,0,1-4.5.5c-0.53,0-1.02-.03-1.5-0.06a7.341,7.341,0,0,0,4.5,1.91c2.74,0,4.97-2.35,4.97-2.35S1727.76,1522.98,1725.02,1522.98Zm-24.37,15.07a20.416,20.416,0,0,1-2.68,3.62,20.329,20.329,0,0,1,1.81-4.11c0.27-.45.54-0.87,0.8-1.26a7.34,7.34,0,0,0-3.92,2.91c-1.37,2.35-.43,5.43-0.43,5.43s3.17-.73,4.54-3.08a7.179,7.179,0,0,0,.57-4.82C1701.14,1537.16,1700.91,1537.6,1700.65,1538.05Zm13.67-25.44a20.889,20.889,0,0,1,2.68-3.62,20.058,20.058,0,0,1-1.82,4.11c-0.26.45-.53,0.87-0.8,1.26a7.3,7.3,0,0,0,3.92-2.9c1.38-2.36.44-5.44,0.44-5.44s-3.17.73-4.54,3.09a7.155,7.155,0,0,0-.58,4.81C1713.83,1513.5,1714.05,1513.06,1714.32,1512.61Z" transform="translate(-1684.97 -1506.03)"/>
</svg>
