<svg xmlns="http://www.w3.org/2000/svg" width="34.998" height="34.998" viewBox="0 0 37 37">
  <metadata><?xpacket begin="﻿" id="W5M0MpCehiHzreSzNTczkc9d"?>
<x:xmpmeta xmlns:x="adobe:ns:meta/" x:xmptk="Adobe XMP Core 5.6-c142 79.160924, 2017/07/13-01:06:39        ">
   <rdf:RDF xmlns:rdf="http://www.w3.org/1999/02/22-rdf-syntax-ns#">
      <rdf:Description rdf:about=""/>
   </rdf:RDF>
</x:xmpmeta>
                                                                                                    
                                                                                                    
                                                                                                    
                                                                                                    
                                                                                                    
                                                                                                    
                                                                                                    
                                                                                                    
                                                                                                    
                                                                                                    
                                                                                                    
                                                                                                    
                                                                                                    
                                                                                                    
                                                                                                    
                                                                                                    
                                                                                                    
                                                                                                    
                                                                                                    
                                                                                                    
                           
<?xpacket end="w"?></metadata>
<defs>
    <style>
      .cls-1 {
        fill-rule: evenodd;
      }
    </style>
  </defs>
  <path id="Forma_1" data-name="Forma 1" class="cls-1" d="M1715.96,1258.83a3.253,3.253,0,0,1,1.37-1.01,7.686,7.686,0,0,1-1.03-3.76c0-.16,0-0.32.01-0.48l-1.95-.79-1.73-1.47a1.144,1.144,0,0,0-1.56.07l-2.41,2.41-2.41-2.41a1.132,1.132,0,0,0-1.55-.07l-1.73,1.47-7.39,2.97c-2.38.96-2.38,9.46-2.58,10.24h20.25a3.167,3.167,0,0,1-.55-1.47,3.259,3.259,0,0,1,.66-2.37Zm7.86,2.74h0a7.406,7.406,0,0,1-2.19-.33,3.159,3.159,0,0,1-.65,1.58l-2.49,3.18h5.84c-0.1-.35-0.15-2.31-0.4-4.43h-0.11Zm-20.31-25.13a13.536,13.536,0,0,0,10.31,0,3.872,3.872,0,0,0,1.72-1.39,0.037,0.037,0,0,0-.03-0.01c-0.83-10.15-5.85-4.44-6.85-4.44s-6.01-5.71-6.84,4.44a0.037,0.037,0,0,0-.03.01A3.816,3.816,0,0,0,1703.51,1236.44Zm-2.21,4.74c0.32,6.02,3.43,9.57,7.36,9.57s7.04-3.55,7.36-9.57c1.91-.76,3.09-1.81,3.09-2.97,0-1.04-.93-1.99-2.47-2.72a4.766,4.766,0,0,1-2.32,2.02,14.621,14.621,0,0,1-11.32,0,4.692,4.692,0,0,1-2.31-2.02c-1.54.73-2.48,1.68-2.48,2.72C1698.21,1239.37,1699.39,1240.42,1701.3,1241.18Zm26.35,7.91a6.126,6.126,0,0,0-8.66,1.03,6.263,6.263,0,0,0,.04,7.76l-0.88,1.13a1.822,1.822,0,0,0-1.11.68l-2.6,3.32a1.853,1.853,0,0,0,.3,2.59,1.821,1.821,0,0,0,2.57-.3l2.6-3.33a1.853,1.853,0,0,0,.39-1.24l0.88-1.13a6.156,6.156,0,0,0,7.5-1.77A6.255,6.255,0,0,0,1727.65,1249.09Zm-0.41,7.6a4.324,4.324,0,0,1-6.1.72,4.41,4.41,0,0,1-.72-6.15,4.327,4.327,0,0,1,6.1-.73A4.414,4.414,0,0,1,1727.24,1256.69Z" transform="translate(-1693 -1229)"/>
</svg>
