<svg xmlns="http://www.w3.org/2000/svg" width="28.933" height="34.997" viewBox="0 0 38.03 46">
  <metadata><?xpacket begin="﻿" id="W5M0MpCehiHzreSzNTczkc9d"?>
<x:xmpmeta xmlns:x="adobe:ns:meta/" x:xmptk="Adobe XMP Core 5.6-c142 79.160924, 2017/07/13-01:06:39        ">
   <rdf:RDF xmlns:rdf="http://www.w3.org/1999/02/22-rdf-syntax-ns#">
      <rdf:Description rdf:about=""/>
   </rdf:RDF>
</x:xmpmeta>
                                                                                                    
                                                                                                    
                                                                                                    
                                                                                                    
                                                                                                    
                                                                                                    
                                                                                                    
                                                                                                    
                                                                                                    
                                                                                                    
                                                                                                    
                                                                                                    
                                                                                                    
                                                                                                    
                                                                                                    
                                                                                                    
                                                                                                    
                                                                                                    
                                                                                                    
                                                                                                    
                           
<?xpacket end="w"?></metadata>
<defs>
    <style>
      .cls-1 {
        fill-rule: evenodd;
      }
    </style>
  </defs>
  <path id="Forma_1" data-name="Forma 1" class="cls-1" d="M1706.97,1437.67a3.649,3.649,0,0,0,1.11-1.96l0.95-4.43a7.936,7.936,0,0,0,5.41,1.66,2.115,2.115,0,0,0,0-4.23c-3.24,0-3.34-1.18-3.56-4.04-0.04-.52-0.08-1.05-0.16-1.58a1.4,1.4,0,0,0-.06-0.28,5.018,5.018,0,0,0-2.88-3.72,4.133,4.133,0,0,0-1.12-.4,7.762,7.762,0,0,0-1.24-.11h-0.02a5.72,5.72,0,0,0-1.79.34,2.509,2.509,0,0,0-.52.14,41.46,41.46,0,0,0-10.39,6.44,2.106,2.106,0,0,0-.16,2.98,2.123,2.123,0,0,0,2.99.16,29.45,29.45,0,0,1,4.56-3.29l-1.77,8.26a3.837,3.837,0,0,0,.86,3.3,56.385,56.385,0,0,1-1.21,7.99,26.37,26.37,0,0,1-4.85,4.64,2.5,2.5,0,1,0,3.1,3.92c1.61-1.28,5.47-4.48,6.36-6.65a28.041,28.041,0,0,0,1.08-5.25l7.41,9.67a2.509,2.509,0,0,0,1.99.98,2.448,2.448,0,0,0,1.51-.52,2.5,2.5,0,0,0,.47-3.5Zm2.02-29.67a5.44,5.44,0,1,1-5.44,5.44A5.448,5.448,0,0,1,1708.99,1408Zm16.64,29a4.37,4.37,0,1,0,4.37,4.37A4.374,4.374,0,0,0,1725.63,1437Zm-1.35,1.08c0.04-.06.18-0.34,0.3-0.57,0.04-.09.08-0.17,0.11-0.23l0.02-.03h0.03a4.2,4.2,0,0,1,1.73,0h0.03l0.26,0.47c0.09,0.16.17,0.31,0.2,0.36l0.04,0.07-0.14.05c-0.06.03-.14,0.06-0.24,0.1l-0.07.02c-0.28.11-.63,0.25-0.8,0.32a0.368,0.368,0,0,0-.1.04l-0.03.01-0.06-.03-0.91-.36c-0.12-.04-0.22-0.08-0.28-0.1a0.147,0.147,0,0,1-.04-0.02l-0.08-.03Zm-1.84,3.33-0.07.09c-0.05.07-.09,0.11-0.1,0.13l-0.05.06-0.06-.05c0-.01,0-0.01-0.01-0.01l-0.49-.48c-0.04-.03-0.07-0.07-0.11-0.1l-0.09-.1v-0.03a4.149,4.149,0,0,1,.52-1.64l0.02-.03,1.04-.18v0.08l0.03,0.44c0.03,0.34.06,0.78,0.07,0.89v0.05l-0.01.02a0.381,0.381,0,0,0-.05.06l-0.07.09C1722.87,1440.88,1722.61,1441.2,1722.44,1441.41Zm1.82,3.64c-0.08.04-.15,0.08-0.21,0.11l-0.03.01-0.03-.01a4.3,4.3,0,0,1-1.43-1l-0.02-.02,0.04-.22,0.13-.84,0.69,0.18c0.3,0.09.61,0.17,0.69,0.19l0.04,0.01,0.05,0.07,0.13,0.21c0.11,0.18.27,0.42,0.39,0.61l0.07,0.12c0.03,0.05.06,0.09,0.08,0.13l0.02,0.02a0.035,0.035,0,0,0,.01.02l0.05,0.07Zm0.52-2.56-0.02-.05c-0.01-.05-0.2-0.62-0.34-1.05l-0.17-.53,0.04-.03c0.06-.04.9-0.63,1.2-0.84,0.05-.04.08-0.06,0.09-0.07l0.04-.03,0.04,0.03c0.01,0.01.05,0.03,0.1,0.07,0.29,0.21,1.13.8,1.19,0.84l0.05,0.03-0.02.07-0.2.6c-0.1.3-.21,0.64-0.26,0.81l-0.05.15h-1.69Zm3.92,1.62a4.134,4.134,0,0,1-1.45,1.03l-0.03.02-0.03-.02c-0.06-.03-0.14-0.07-0.23-0.11l-0.63-.32,0.78-1.25h0.03c0.02-.01.17-0.05,0.36-0.1l0.67-.18c0.13-.04.24-0.07,0.29-0.08l0.06-.02,0.03,0.07,0.03,0.16c0.02,0.14.06,0.33,0.09,0.5,0.01,0.09.03,0.17,0.04,0.24l0.01,0.03Zm0.85-2.92-0.52.5-0.05-.06a0.085,0.085,0,0,1-.03-0.03l-0.02-.03c-0.04-.05-0.1-0.12-0.16-0.2-0.17-.21-0.4-0.5-0.54-0.67-0.04-.06-0.08-0.11-0.09-0.13l-0.03-.03v-0.06l0.09-1.29a0.048,0.048,0,0,1,.01-0.04v-0.08l0.08,0.01c0.07,0.01.37,0.07,0.64,0.11,0.07,0.01.13,0.02,0.19,0.03l0.09,0.02,0.02,0.03a4.171,4.171,0,0,1,.52,1.68l0.01,0.04-0.03.02Zm-9.51,1.91c-0.16.09-.37,0.21-0.62,0.37s-0.53.34-.84,0.55c-0.15.1-.3,0.22-0.45,0.33s-0.31.23-.46,0.35l-0.44.38c-0.14.13-.29,0.24-0.42,0.38s-0.25.26-.36,0.38-0.23.23-.32,0.34l-0.57.77s0.27-.26.67-0.67c0.11-.09.24-0.18,0.36-0.28s0.27-.21.41-0.31c0.14-.12.3-0.2,0.45-0.31l0.48-.3c0.17-.09.33-0.18,0.49-0.27s0.32-.18.49-0.25c0.32-.15.61-0.29,0.87-0.4s0.47-.2.62-0.25,0.25-.09.25-0.09l-0.38-.85S1720.19,1443.02,1720.04,1443.1Z" transform="translate(-1691.97 -1408)"/>
</svg>
