<svg xmlns="http://www.w3.org/2000/svg" width="28.169" height="34.998" viewBox="0 0 33 41">
  <metadata><?xpacket begin="﻿" id="W5M0MpCehiHzreSzNTczkc9d"?>
<x:xmpmeta xmlns:x="adobe:ns:meta/" x:xmptk="Adobe XMP Core 5.6-c142 79.160924, 2017/07/13-01:06:39        ">
   <rdf:RDF xmlns:rdf="http://www.w3.org/1999/02/22-rdf-syntax-ns#">
      <rdf:Description rdf:about=""/>
   </rdf:RDF>
</x:xmpmeta>
                                                                                                    
                                                                                                    
                                                                                                    
                                                                                                    
                                                                                                    
                                                                                                    
                                                                                                    
                                                                                                    
                                                                                                    
                                                                                                    
                                                                                                    
                                                                                                    
                                                                                                    
                                                                                                    
                                                                                                    
                                                                                                    
                                                                                                    
                                                                                                    
                                                                                                    
                                                                                                    
                           
<?xpacket end="w"?></metadata>
<defs>
    <style>
      .cls-1 {
        fill-rule: evenodd;
      }
    </style>
  </defs>
  <path id="Forma_1" data-name="Forma 1" class="cls-1" d="M1729.9,1332.15c-0.66-6.52-4.98-14.26-12.9-15.83a17.775,17.775,0,0,0-3.35-.32,17.43,17.43,0,0,0-14.18,7.08c-0.08.11-.16,0.22-0.23,0.33-3.4,5.13-2.87,12.26,1.21,16.23,0.31,0.29.63,0.58,0.95,0.86a8.337,8.337,0,0,1,1.96,2.12,5.693,5.693,0,0,1,.03,5.01,17.78,17.78,0,0,1-3.08,4.43,0.349,0.349,0,0,0,.29.58,9.7,9.7,0,0,0,7.01-3.95,9.593,9.593,0,0,0,1.93-7.79,0.341,0.341,0,0,0-.27-0.27,0.347,0.347,0,0,0-.35.14,1.617,1.617,0,0,1-1.34.62,2.751,2.751,0,0,1-1.81-.71c-2.23-2.13-2.38-5.48-2.28-7.28a15.419,15.419,0,0,1,1.67-5.62c0.02-.05.05-0.11,0.07-0.16a8.18,8.18,0,0,0,3.35,4.5c0.38,0.27.78,0.54,1.18,0.81,1.68,1.13,3.42,2.3,4.12,4.1,1.04,2.68-.55,5.62-2.43,8.4a0.357,0.357,0,0,0-.01.36,0.386,0.386,0,0,0,.33.19,3.815,3.815,0,0,0,2.39-.87c-0.06,3.11-3.34,5.58-5.89,7.2l-6.08,3.86a0.351,0.351,0,0,0,.14.64,19.631,19.631,0,0,0,2.77.19c6.72,0,13.88-3.37,19.65-9.26A19.878,19.878,0,0,0,1729.9,1332.15Z" transform="translate(-1697 -1316)"/>
</svg>
